<svg id="svg" version="1.1" width="400" height="400" viewBox="0 0 400 400" xmlns="http://www.w3.org/2000/svg" xmlns:xlink="http://www.w3.org/1999/xlink"><g id="svgg"><path id="path0" d="M206.000 108.932 C 202.937 110.365,201.236 112.817,200.403 117.000 C 198.190 128.122,188.773 156.662,179.483 180.400 C 178.063 184.030,175.775 190.060,174.400 193.800 C 171.131 202.690,171.917 202.351,162.800 198.818 C 151.246 194.340,149.037 191.810,149.635 183.736 C 150.456 172.662,153.134 161.668,158.195 148.600 C 165.121 130.718,166.372 127.899,167.798 126.965 C 173.376 123.310,169.318 114.800,161.997 114.800 C 156.756 114.800,154.069 117.923,147.883 131.200 C 142.940 141.811,141.828 144.567,137.794 156.200 C 133.495 168.597,131.244 187.625,133.226 194.808 C 136.086 205.173,143.570 210.988,163.700 218.487 C 165.020 218.979,165.057 219.536,163.964 222.406 C 163.504 223.613,162.889 225.320,162.598 226.200 C 158.706 237.950,152.903 253.027,143.200 276.600 C 137.881 289.521,136.182 294.285,131.289 310.000 C 126.528 325.289,128.306 331.749,137.436 332.330 C 144.321 332.768,146.748 329.798,150.778 316.000 C 151.260 314.350,151.811 312.550,152.001 312.000 C 152.192 311.450,152.919 309.110,153.617 306.800 C 155.448 300.734,156.466 298.090,166.859 272.400 C 169.485 265.910,172.781 257.540,174.185 253.800 C 176.622 247.305,177.504 244.839,180.623 235.800 C 183.820 226.534,184.657 224.598,185.447 224.641 C 185.861 224.664,188.270 225.078,190.800 225.561 C 193.330 226.043,197.470 226.794,200.000 227.229 C 204.526 228.008,205.832 228.197,215.400 229.460 C 223.810 230.570,237.317 230.440,239.767 229.225 C 249.126 224.583,261.348 192.713,269.851 150.777 C 272.909 135.694,271.537 129.917,264.523 128.348 C 258.181 126.929,254.031 130.601,252.137 139.309 C 246.670 164.437,244.048 174.777,240.502 185.200 C 238.091 192.289,231.339 208.669,230.325 209.890 C 229.794 210.530,223.367 210.576,218.227 209.977 C 205.179 208.455,192.726 206.649,191.942 206.164 C 191.212 205.713,191.417 205.055,196.410 191.800 C 198.832 185.371,205.302 166.578,206.806 161.600 C 207.304 159.950,208.217 156.980,208.833 155.000 C 215.480 133.650,218.149 117.765,215.870 113.108 C 213.974 109.231,209.452 107.318,206.000 108.932 " stroke="none" fill="#F5F1E8" fill-rule="evenodd"></path><path id="path1" d="M33.500 0.501 C 32.015 0.717,30.800 1.037,30.800 1.212 C 30.800 1.387,30.081 1.651,29.202 1.800 C 28.323 1.948,27.503 2.234,27.378 2.435 C 27.254 2.636,26.851 2.800,26.482 2.800 C 25.714 2.800,21.663 4.749,20.871 5.499 C 20.581 5.774,20.086 6.000,19.771 6.000 C 19.457 6.000,19.200 6.184,19.200 6.410 C 19.200 6.635,18.750 6.991,18.200 7.200 C 17.650 7.409,17.200 7.765,17.200 7.990 C 17.200 8.216,16.955 8.400,16.656 8.400 C 15.947 8.400,8.400 15.947,8.400 16.656 C 8.400 16.955,8.216 17.200,7.990 17.200 C 7.765 17.200,7.409 17.650,7.200 18.200 C 6.991 18.750,6.635 19.200,6.410 19.200 C 6.184 19.200,6.000 19.457,6.000 19.771 C 6.000 20.086,5.775 20.589,5.500 20.891 C 4.649 21.824,3.200 24.720,3.200 25.490 C 3.200 25.893,2.945 26.586,2.633 27.031 C 2.321 27.477,1.941 28.507,1.789 29.320 C 1.636 30.134,1.378 30.800,1.216 30.800 C 0.062 30.800,-0.001 39.522,-0.001 200.000 C -0.001 360.731,0.060 369.200,1.225 369.200 C 1.393 369.200,1.651 369.919,1.800 370.798 C 1.948 371.677,2.234 372.497,2.435 372.622 C 2.636 372.746,2.800 373.149,2.800 373.518 C 2.800 374.286,4.749 378.337,5.499 379.129 C 5.774 379.419,6.000 379.914,6.000 380.229 C 6.000 380.543,6.184 380.800,6.410 380.800 C 6.635 380.800,6.991 381.250,7.200 381.800 C 7.409 382.350,7.765 382.800,7.990 382.800 C 8.216 382.800,8.400 383.035,8.400 383.323 C 8.400 384.005,15.995 391.600,16.677 391.600 C 16.965 391.600,17.200 391.784,17.200 392.010 C 17.200 392.235,17.650 392.591,18.200 392.800 C 18.750 393.009,19.200 393.365,19.200 393.590 C 19.200 393.816,19.457 394.000,19.771 394.000 C 20.086 394.000,20.589 394.225,20.891 394.500 C 21.824 395.351,24.720 396.800,25.490 396.800 C 25.893 396.800,26.586 397.055,27.031 397.367 C 27.477 397.679,28.507 398.059,29.320 398.211 C 30.134 398.364,30.800 398.622,30.800 398.784 C 30.800 399.938,39.522 400.001,200.000 400.001 C 360.731 400.001,369.200 399.940,369.200 398.775 C 369.200 398.607,369.919 398.349,370.798 398.200 C 371.677 398.052,372.497 397.766,372.622 397.565 C 372.746 397.364,373.149 397.200,373.518 397.200 C 374.286 397.200,378.337 395.251,379.129 394.501 C 379.419 394.226,379.914 394.000,380.229 394.000 C 380.543 394.000,380.800 393.816,380.800 393.590 C 380.800 393.365,381.250 393.009,381.800 392.800 C 382.350 392.591,382.800 392.235,382.800 392.010 C 382.800 391.784,383.045 391.600,383.344 391.600 C 384.053 391.600,391.600 384.053,391.600 383.344 C 391.600 383.045,391.784 382.800,392.010 382.800 C 392.235 382.800,392.591 382.350,392.800 381.800 C 393.009 381.250,393.365 380.800,393.590 380.800 C 393.816 380.800,394.000 380.543,394.000 380.229 C 394.000 379.914,394.225 379.411,394.500 379.109 C 395.351 378.176,396.800 375.280,396.800 374.510 C 396.800 374.107,397.055 373.414,397.367 372.969 C 397.679 372.523,398.059 371.493,398.211 370.680 C 398.364 369.866,398.622 369.200,398.784 369.200 C 399.938 369.200,400.001 360.478,400.001 200.000 C 400.001 39.269,399.940 30.800,398.775 30.800 C 398.607 30.800,398.349 30.081,398.200 29.202 C 398.052 28.323,397.766 27.503,397.565 27.378 C 397.364 27.254,397.200 26.851,397.200 26.482 C 397.200 25.714,395.251 21.663,394.501 20.871 C 394.226 20.581,394.000 20.086,394.000 19.771 C 394.000 19.457,393.816 19.200,393.590 19.200 C 393.365 19.200,393.009 18.750,392.800 18.200 C 392.591 17.650,392.235 17.200,392.010 17.200 C 391.784 17.200,391.600 16.965,391.600 16.677 C 391.600 15.995,384.005 8.400,383.323 8.400 C 383.035 8.400,382.800 8.216,382.800 7.990 C 382.800 7.765,382.350 7.409,381.800 7.200 C 381.250 6.991,380.800 6.635,380.800 6.410 C 380.800 6.184,380.543 6.000,380.229 6.000 C 379.914 6.000,379.411 5.775,379.109 5.500 C 378.176 4.649,375.280 3.200,374.510 3.200 C 374.107 3.200,373.414 2.945,372.969 2.633 C 372.523 2.321,371.493 1.941,370.680 1.789 C 369.866 1.636,369.200 1.378,369.200 1.216 C 369.200 -0.007,41.796 -0.705,33.500 0.501 M212.222 108.354 C 218.001 110.979,218.894 117.207,215.613 132.000 C 213.806 140.145,211.149 150.390,210.009 153.600 C 209.814 154.150,209.259 155.950,208.775 157.600 C 207.523 161.873,203.172 174.979,201.206 180.400 C 200.288 182.930,199.396 185.450,199.222 186.000 C 199.049 186.550,197.779 190.060,196.402 193.800 C 191.515 207.065,191.709 205.809,194.500 206.127 C 195.655 206.259,198.490 206.644,200.800 206.983 C 212.754 208.736,226.470 210.197,228.587 209.942 C 230.514 209.711,239.114 189.001,242.637 176.108 C 245.620 165.191,249.215 149.984,251.222 139.800 C 252.669 132.454,255.393 128.718,260.138 127.571 C 264.943 126.409,269.232 128.614,271.457 133.392 C 272.854 136.392,272.762 138.821,270.838 149.600 C 268.728 161.428,261.996 187.453,258.991 195.400 C 248.659 222.726,245.268 228.405,237.989 230.566 C 231.770 232.413,210.337 230.354,188.426 225.806 C 184.971 225.089,185.204 224.935,183.874 228.800 C 183.307 230.450,181.561 235.400,179.995 239.800 C 178.429 244.200,176.778 248.880,176.326 250.200 C 175.874 251.520,175.271 253.140,174.987 253.800 C 174.703 254.460,174.090 256.080,173.625 257.400 C 173.160 258.720,172.612 260.160,172.408 260.600 C 172.203 261.040,170.836 264.460,169.370 268.200 C 167.904 271.940,165.131 278.780,163.207 283.400 C 157.536 297.022,155.169 303.742,150.384 319.800 C 147.388 329.857,144.258 333.334,138.200 333.337 C 130.263 333.343,125.712 325.587,128.497 316.800 C 128.881 315.590,129.837 312.440,130.623 309.800 C 134.249 297.617,137.807 287.638,142.604 276.200 C 149.180 260.522,155.124 245.103,161.187 228.000 C 162.318 224.810,163.413 221.787,163.622 221.281 C 164.290 219.658,164.051 219.281,161.900 218.573 C 145.676 213.229,135.573 205.213,132.597 195.324 C 130.282 187.633,132.450 170.210,137.653 154.684 C 144.747 133.517,153.263 117.159,158.400 114.833 C 167.027 110.926,175.234 120.877,168.599 127.200 C 166.722 128.988,166.391 129.663,162.301 140.000 C 153.970 161.056,151.366 170.562,150.390 183.481 C 149.799 191.291,150.327 192.135,158.200 195.975 C 161.795 197.728,170.715 201.040,170.993 200.726 C 171.054 200.656,172.135 197.810,173.394 194.400 C 175.403 188.961,177.250 184.159,181.087 174.400 C 181.650 172.970,182.617 170.360,183.237 168.600 C 183.858 166.840,185.026 163.600,185.834 161.400 C 191.439 146.136,196.433 130.286,199.005 119.600 C 200.523 113.293,200.809 112.533,202.343 110.741 C 204.053 108.744,206.381 107.618,208.800 107.618 C 209.790 107.618,211.330 107.949,212.222 108.354 " stroke="none" fill="#F5F1E8" fill-rule="evenodd"></path><path id="path2" d="M226.307 210.290 C 227.026 210.379,228.106 210.377,228.707 210.286 C 229.308 210.195,228.720 210.122,227.400 210.124 C 226.080 210.126,225.588 210.201,226.307 210.290 M223.500 230.682 C 223.995 230.778,224.805 230.778,225.300 230.682 C 225.795 230.587,225.390 230.509,224.400 230.509 C 223.410 230.509,223.005 230.587,223.500 230.682 " stroke="none" fill="#F5F1E8" fill-rule="evenodd"></path><path id="path3" d="M205.378 108.354 C 203.869 109.040,200.800 112.089,200.800 112.903 C 200.800 113.101,201.385 112.497,202.100 111.562 C 207.583 104.389,216.542 108.085,217.220 117.800 L 217.471 121.400 217.535 118.446 C 217.677 111.999,214.142 107.618,208.800 107.618 C 207.810 107.618,206.270 107.949,205.378 108.354 M200.258 114.270 C 200.139 114.671,199.949 115.720,199.834 116.600 C 199.675 117.829,199.757 117.693,200.190 116.010 C 200.705 114.010,200.761 112.561,200.258 114.270 M158.500 114.789 C 157.565 115.214,156.800 115.650,156.800 115.758 C 156.800 115.866,157.636 115.585,158.657 115.134 C 161.361 113.938,164.484 114.235,167.246 115.952 C 168.401 116.670,169.118 116.983,168.840 116.648 C 166.889 114.298,161.656 113.357,158.500 114.789 M154.597 117.700 C 153.791 118.635,152.875 119.940,152.560 120.600 C 152.246 121.260,152.216 121.456,152.494 121.036 C 152.772 120.616,153.767 119.311,154.705 118.136 C 156.739 115.587,156.668 115.298,154.597 117.700 M198.240 122.673 C 197.015 127.317,196.483 129.955,197.206 127.800 C 198.056 125.264,199.624 119.073,199.506 118.718 C 199.438 118.513,198.868 120.293,198.240 122.673 M170.694 121.339 C 170.959 123.683,170.304 125.275,168.401 126.916 C 166.958 128.161,165.342 130.675,165.734 131.067 C 165.840 131.173,166.057 130.851,166.215 130.351 C 166.374 129.851,167.356 128.533,168.397 127.421 C 171.140 124.492,172.002 121.886,170.837 120.046 C 170.621 119.706,170.566 120.204,170.694 121.339 M216.640 124.240 C 216.490 125.703,216.449 126.982,216.548 127.082 C 216.648 127.181,216.857 126.071,217.013 124.613 C 217.169 123.156,217.211 121.877,217.105 121.772 C 216.999 121.666,216.790 122.777,216.640 124.240 M150.600 124.000 C 150.043 125.100,149.677 126.000,149.787 126.000 C 149.897 126.000,150.443 125.100,151.000 124.000 C 151.557 122.900,151.923 122.000,151.813 122.000 C 151.703 122.000,151.157 122.900,150.600 124.000 M148.278 128.620 C 146.809 131.614,146.945 131.969,148.446 129.060 C 149.110 127.773,149.586 126.653,149.504 126.571 C 149.423 126.489,148.871 127.411,148.278 128.620 M263.066 127.591 C 266.231 128.044,267.514 128.730,269.610 131.087 C 270.545 132.139,271.108 132.611,270.860 132.136 C 269.428 129.387,266.437 127.567,263.035 127.375 L 260.600 127.237 263.066 127.591 M256.336 129.388 C 254.339 130.853,252.204 134.522,251.789 137.200 C 251.635 138.191,251.790 137.958,252.317 136.400 C 253.628 132.531,255.004 130.654,257.989 128.660 C 258.533 128.297,258.803 128.004,258.589 128.010 C 258.375 128.015,257.361 128.635,256.336 129.388 M196.000 130.800 C 195.751 131.724,195.626 132.559,195.721 132.655 C 195.817 132.750,196.090 132.063,196.327 131.127 C 196.565 130.191,196.690 129.357,196.606 129.273 C 196.522 129.188,196.249 129.876,196.000 130.800 M215.649 130.200 C 215.616 130.640,215.496 131.450,215.383 132.000 L 215.177 133.000 215.606 132.019 C 215.842 131.479,215.961 130.669,215.872 130.219 C 215.713 129.421,215.707 129.421,215.649 130.200 M145.878 133.820 C 144.409 136.814,144.545 137.169,146.046 134.260 C 146.710 132.973,147.186 131.853,147.104 131.771 C 147.023 131.689,146.471 132.611,145.878 133.820 M163.874 135.074 C 163.290 136.544,162.878 137.811,162.957 137.891 C 163.036 137.970,163.581 136.835,164.168 135.368 C 164.755 133.902,165.168 132.635,165.085 132.552 C 165.002 132.469,164.457 133.604,163.874 135.074 M271.459 133.800 C 271.608 134.240,271.852 136.220,272.000 138.200 L 272.271 141.800 272.317 138.600 C 272.348 136.510,272.160 134.984,271.776 134.200 C 271.453 133.540,271.310 133.360,271.459 133.800 M144.065 137.817 C 143.395 139.288,143.523 139.602,144.247 138.265 C 144.586 137.640,144.788 137.054,144.696 136.963 C 144.605 136.871,144.321 137.256,144.065 137.817 M213.850 138.050 C 213.517 139.717,213.840 140.040,214.200 138.400 C 214.352 137.709,214.393 137.059,214.291 136.958 C 214.189 136.856,213.991 137.347,213.850 138.050 M193.429 139.229 C 193.058 140.361,192.827 141.360,192.915 141.449 C 193.003 141.537,193.376 140.679,193.743 139.543 C 194.110 138.407,194.341 137.408,194.256 137.323 C 194.172 137.238,193.799 138.096,193.429 139.229 M251.000 140.800 C 250.846 141.710,250.804 142.538,250.907 142.640 C 251.010 142.743,251.213 142.077,251.360 141.160 C 251.507 140.243,251.548 139.415,251.453 139.320 C 251.358 139.224,251.154 139.890,251.000 140.800 M212.667 142.867 C 212.291 144.434,212.055 145.789,212.144 145.877 C 212.232 145.965,212.617 144.761,213.000 143.200 C 213.383 141.639,213.618 140.285,213.523 140.190 C 213.428 140.095,213.043 141.299,212.667 142.867 M271.385 144.185 C 271.230 145.423,271.190 146.523,271.295 146.629 C 271.401 146.734,271.607 145.801,271.754 144.554 C 271.900 143.307,271.941 142.207,271.843 142.110 C 271.746 142.012,271.539 142.946,271.385 144.185 M159.644 145.644 C 159.398 146.351,159.266 147.000,159.352 147.085 C 159.438 147.171,159.709 146.662,159.956 145.956 C 160.202 145.249,160.334 144.600,160.248 144.515 C 160.162 144.429,159.891 144.938,159.644 145.644 M190.891 146.900 C 190.210 148.784,190.304 149.294,191.026 147.630 C 191.353 146.877,191.566 146.099,191.501 145.902 C 191.435 145.705,191.160 146.154,190.891 146.900 M139.846 148.246 C 139.492 149.285,139.272 150.205,139.356 150.290 C 139.441 150.374,139.800 149.593,140.154 148.554 C 140.508 147.515,140.728 146.595,140.644 146.510 C 140.559 146.426,140.200 147.207,139.846 148.246 M211.429 147.429 C 211.281 148.015,211.238 148.572,211.332 148.666 C 211.427 148.760,211.624 148.358,211.771 147.771 C 211.919 147.185,211.962 146.628,211.868 146.534 C 211.773 146.440,211.576 146.842,211.429 147.429 M249.422 148.222 C 249.272 149.025,249.228 149.762,249.326 149.860 C 249.424 149.957,249.627 149.381,249.778 148.578 C 249.928 147.775,249.972 147.038,249.874 146.940 C 249.776 146.843,249.573 147.419,249.422 148.222 M157.858 150.504 C 156.928 152.940,157.080 153.404,158.036 151.047 C 158.472 149.973,158.758 149.024,158.672 148.938 C 158.586 148.852,158.220 149.557,157.858 150.504 M189.640 150.640 C 189.410 151.473,189.294 152.227,189.382 152.315 C 189.470 152.403,189.730 151.793,189.960 150.960 C 190.190 150.127,190.306 149.373,190.218 149.285 C 190.130 149.197,189.870 149.807,189.640 150.640 M210.267 151.467 C 209.909 152.723,209.687 153.820,209.772 153.905 C 209.856 153.990,210.223 153.037,210.587 151.787 C 210.950 150.537,211.173 149.440,211.082 149.348 C 210.991 149.257,210.624 150.211,210.267 151.467 M270.025 151.825 C 269.739 153.263,269.584 154.518,269.680 154.614 C 269.777 154.710,270.089 153.613,270.375 152.175 C 270.661 150.737,270.816 149.482,270.720 149.386 C 270.623 149.290,270.311 150.387,270.025 151.825 M248.431 152.831 C 248.185 153.978,248.060 154.993,248.153 155.086 C 248.246 155.179,248.523 154.317,248.769 153.169 C 249.015 152.022,249.140 151.007,249.047 150.914 C 248.954 150.821,248.677 151.683,248.431 152.831 M188.044 155.244 C 187.798 155.951,187.666 156.600,187.752 156.685 C 187.838 156.771,188.109 156.262,188.356 155.556 C 188.602 154.849,188.734 154.200,188.648 154.115 C 188.562 154.029,188.291 154.538,188.044 155.244 M208.667 156.667 C 208.309 157.923,208.087 159.020,208.172 159.105 C 208.256 159.190,208.623 158.237,208.987 156.987 C 209.350 155.737,209.573 154.640,209.482 154.548 C 209.391 154.457,209.024 155.411,208.667 156.667 M155.280 157.880 C 154.688 159.809,154.975 160.095,155.600 158.200 C 155.864 157.401,156.002 156.669,155.907 156.574 C 155.812 156.478,155.530 157.066,155.280 157.880 M268.849 157.400 C 268.816 157.840,268.696 158.650,268.583 159.200 L 268.377 160.200 268.806 159.219 C 269.042 158.679,269.161 157.869,269.072 157.419 C 268.913 156.621,268.907 156.621,268.849 157.400 M186.255 160.090 C 185.673 161.691,185.207 163.180,185.221 163.400 C 185.235 163.620,185.780 162.379,186.433 160.643 C 187.086 158.907,187.551 157.418,187.467 157.334 C 187.383 157.250,186.838 158.490,186.255 160.090 M247.000 158.800 C 246.848 159.491,246.807 160.141,246.909 160.242 C 247.011 160.344,247.209 159.853,247.350 159.150 C 247.683 157.483,247.360 157.160,247.000 158.800 M207.646 160.067 C 207.621 160.434,207.496 161.064,207.370 161.467 C 207.152 162.162,207.163 162.163,207.597 161.487 C 207.848 161.096,207.973 160.466,207.873 160.087 C 207.711 159.468,207.688 159.466,207.646 160.067 M135.429 161.429 C 135.281 162.015,135.238 162.572,135.332 162.666 C 135.427 162.760,135.624 162.358,135.771 161.771 C 135.919 161.185,135.962 160.628,135.868 160.534 C 135.773 160.440,135.576 160.842,135.429 161.429 M154.229 161.429 C 154.081 162.015,154.038 162.572,154.132 162.666 C 154.227 162.760,154.424 162.358,154.571 161.771 C 154.719 161.185,154.762 160.628,154.668 160.534 C 154.573 160.440,154.376 160.842,154.229 161.429 M246.200 162.000 C 246.048 162.691,246.007 163.341,246.109 163.442 C 246.211 163.544,246.409 163.053,246.550 162.350 C 246.883 160.683,246.560 160.360,246.200 162.000 M206.286 164.486 C 205.921 165.625,205.690 166.623,205.771 166.704 C 205.852 166.785,206.225 165.929,206.600 164.800 C 206.975 163.671,207.206 162.673,207.115 162.581 C 207.023 162.490,206.650 163.347,206.286 164.486 M267.400 163.600 C 267.248 164.291,267.207 164.941,267.309 165.042 C 267.411 165.144,267.609 164.653,267.750 163.950 C 268.083 162.283,267.760 161.960,267.400 163.600 M134.650 164.450 C 134.317 166.117,134.640 166.440,135.000 164.800 C 135.152 164.109,135.193 163.459,135.091 163.358 C 134.989 163.256,134.791 163.747,134.650 164.450 M184.465 165.017 C 184.209 165.578,184.007 166.254,184.016 166.519 C 184.024 166.783,184.297 166.388,184.622 165.639 C 185.305 164.065,185.161 163.490,184.465 165.017 M245.400 165.200 C 245.248 165.891,245.207 166.541,245.309 166.642 C 245.411 166.744,245.609 166.253,245.750 165.550 C 246.083 163.883,245.760 163.560,245.400 165.200 M152.629 167.029 C 152.481 167.615,152.438 168.172,152.532 168.266 C 152.627 168.360,152.824 167.958,152.971 167.371 C 153.119 166.785,153.162 166.228,153.068 166.134 C 152.973 166.040,152.776 166.442,152.629 167.029 M183.244 168.444 C 182.998 169.151,182.866 169.800,182.952 169.885 C 183.038 169.971,183.309 169.462,183.556 168.756 C 183.802 168.049,183.934 167.400,183.848 167.315 C 183.762 167.229,183.491 167.738,183.244 168.444 M266.029 169.429 C 265.754 170.657,265.606 171.739,265.700 171.833 C 265.794 171.928,266.097 171.000,266.371 169.771 C 266.646 168.543,266.794 167.461,266.700 167.367 C 266.606 167.272,266.303 168.200,266.029 169.429 M204.248 170.648 C 203.676 172.349,203.276 173.809,203.360 173.893 C 203.444 173.977,203.980 172.654,204.552 170.952 C 205.124 169.251,205.524 167.791,205.440 167.707 C 205.356 167.623,204.820 168.946,204.248 170.648 M151.856 170.084 C 151.721 170.588,151.627 171.360,151.646 171.800 C 151.665 172.240,151.845 171.898,152.046 171.040 C 152.436 169.378,152.270 168.540,151.856 170.084 M243.800 171.600 C 243.648 172.291,243.607 172.941,243.709 173.042 C 243.811 173.144,244.009 172.653,244.150 171.950 C 244.483 170.283,244.160 169.960,243.800 171.600 M181.644 172.844 C 181.398 173.551,181.266 174.200,181.352 174.285 C 181.438 174.371,181.709 173.862,181.956 173.156 C 182.202 172.449,182.334 171.800,182.248 171.715 C 182.162 171.629,181.891 172.138,181.644 172.844 M265.000 173.600 C 264.848 174.291,264.807 174.941,264.909 175.042 C 265.011 175.144,265.209 174.653,265.350 173.950 C 265.683 172.283,265.360 171.960,265.000 173.600 M243.049 174.215 C 242.912 174.573,242.815 175.166,242.834 175.533 C 242.853 175.900,243.027 175.669,243.221 175.020 C 243.598 173.758,243.465 173.133,243.049 174.215 M180.465 175.817 C 180.209 176.378,180.007 177.054,180.016 177.319 C 180.024 177.583,180.297 177.188,180.622 176.439 C 181.305 174.865,181.161 174.290,180.465 175.817 M132.194 178.938 C 132.038 180.805,131.991 182.573,132.090 182.866 C 132.188 183.160,132.396 181.713,132.552 179.651 C 132.708 177.590,132.755 175.822,132.656 175.723 C 132.557 175.624,132.349 177.071,132.194 178.938 M263.631 178.831 C 263.347 179.940,263.190 180.923,263.283 181.017 C 263.376 181.110,263.685 180.278,263.969 179.169 C 264.253 178.060,264.410 177.077,264.317 176.983 C 264.224 176.890,263.915 177.722,263.631 178.831 M241.636 179.236 C 241.366 180.139,241.218 180.952,241.308 181.042 C 241.398 181.132,241.693 180.466,241.964 179.564 C 242.234 178.661,242.382 177.848,242.292 177.758 C 242.202 177.668,241.907 178.334,241.636 179.236 M150.501 179.400 C 150.505 180.280,150.587 180.593,150.683 180.095 C 150.779 179.598,150.775 178.878,150.675 178.495 C 150.575 178.113,150.496 178.520,150.501 179.400 M150.131 183.800 C 150.133 185.340,150.205 185.921,150.292 185.091 C 150.379 184.261,150.377 183.001,150.289 182.291 C 150.200 181.581,150.129 182.260,150.131 183.800 M262.229 183.829 C 262.081 184.415,262.038 184.972,262.132 185.066 C 262.227 185.160,262.424 184.758,262.571 184.171 C 262.719 183.585,262.762 183.028,262.668 182.934 C 262.573 182.840,262.376 183.242,262.229 183.829 M131.740 188.000 C 131.740 189.870,131.809 190.635,131.893 189.700 C 131.977 188.765,131.977 187.235,131.893 186.300 C 131.809 185.365,131.740 186.130,131.740 188.000 M175.880 187.680 C 175.276 189.239,174.846 190.580,174.926 190.660 C 175.006 190.740,175.570 189.534,176.180 187.980 C 176.790 186.426,177.219 185.085,177.134 185.000 C 177.049 184.915,176.484 186.121,175.880 187.680 M239.077 187.077 C 238.700 188.093,238.458 188.991,238.538 189.072 C 238.619 189.152,239.000 188.393,239.385 187.385 C 239.770 186.376,240.012 185.479,239.923 185.390 C 239.835 185.301,239.454 186.060,239.077 187.077 M198.480 187.080 C 197.888 189.009,198.175 189.295,198.800 187.400 C 199.064 186.601,199.202 185.869,199.107 185.774 C 199.012 185.678,198.730 186.266,198.480 187.080 M261.236 187.236 C 260.966 188.139,260.818 188.952,260.908 189.042 C 260.998 189.132,261.293 188.466,261.564 187.564 C 261.834 186.661,261.982 185.848,261.892 185.758 C 261.802 185.668,261.507 186.334,261.236 187.236 M197.244 190.444 C 196.998 191.151,196.866 191.800,196.952 191.885 C 197.038 191.971,197.309 191.462,197.556 190.756 C 197.802 190.049,197.934 189.400,197.848 189.315 C 197.762 189.229,197.491 189.738,197.244 190.444 M150.000 189.910 C 150.000 191.034,155.351 195.600,156.668 195.600 C 156.836 195.600,155.812 194.835,154.393 193.900 C 152.973 192.965,151.404 191.588,150.906 190.841 C 150.408 190.093,150.000 189.675,150.000 189.910 M235.879 195.479 C 234.854 198.048,234.080 200.214,234.159 200.293 C 234.238 200.371,235.143 198.336,236.170 195.770 C 237.197 193.203,237.970 191.037,237.889 190.956 C 237.808 190.875,236.903 192.910,235.879 195.479 M259.486 192.886 C 259.121 194.025,258.890 195.023,258.971 195.104 C 259.052 195.185,259.425 194.329,259.800 193.200 C 260.175 192.071,260.406 191.073,260.315 190.981 C 260.223 190.890,259.850 191.747,259.486 192.886 M132.068 193.000 C 132.062 193.440,132.211 194.160,132.400 194.600 C 132.838 195.619,132.838 194.568,132.400 193.200 C 132.143 192.396,132.077 192.357,132.068 193.000 M173.644 193.644 C 173.398 194.351,173.266 195.000,173.352 195.085 C 173.438 195.171,173.709 194.662,173.956 193.956 C 174.202 193.249,174.334 192.600,174.248 192.515 C 174.162 192.429,173.891 192.938,173.644 193.644 M195.644 194.844 C 195.398 195.551,195.266 196.200,195.352 196.285 C 195.438 196.371,195.709 195.862,195.956 195.156 C 196.202 194.449,196.334 193.800,196.248 193.715 C 196.162 193.629,195.891 194.138,195.644 194.844 M132.800 195.884 C 132.800 196.451,133.963 199.200,134.202 199.200 C 134.307 199.200,134.096 198.435,133.732 197.500 C 132.995 195.607,132.800 195.269,132.800 195.884 M172.057 197.931 C 170.876 201.170,171.027 201.591,172.242 198.448 C 172.785 197.044,173.158 195.824,173.071 195.738 C 172.985 195.652,172.528 196.639,172.057 197.931 M194.246 198.646 C 193.892 199.685,193.672 200.605,193.756 200.690 C 193.841 200.774,194.200 199.993,194.554 198.954 C 194.908 197.915,195.128 196.995,195.044 196.910 C 194.959 196.826,194.600 197.607,194.246 198.646 M257.077 199.477 C 256.700 200.493,256.458 201.391,256.538 201.472 C 256.619 201.552,257.000 200.793,257.385 199.785 C 257.770 198.776,258.012 197.879,257.923 197.790 C 257.835 197.701,257.454 198.460,257.077 199.477 M163.400 198.555 C 164.060 198.855,165.050 199.211,165.600 199.346 C 166.403 199.543,166.364 199.484,165.400 199.045 C 164.740 198.745,163.750 198.389,163.200 198.254 C 162.397 198.057,162.436 198.116,163.400 198.555 M134.415 199.800 C 134.417 200.020,134.786 200.650,135.236 201.200 C 135.779 201.864,135.915 201.931,135.640 201.400 C 134.966 200.095,134.412 199.372,134.415 199.800 M168.000 200.200 C 169.826 200.903,170.545 200.893,169.000 200.186 C 168.340 199.883,167.530 199.642,167.200 199.648 C 166.870 199.655,167.230 199.903,168.000 200.200 M232.267 204.067 C 231.681 205.424,231.266 206.599,231.344 206.678 C 231.423 206.756,231.968 205.711,232.556 204.356 C 233.143 203.000,233.559 201.825,233.478 201.745 C 233.398 201.664,232.852 202.709,232.267 204.067 M136.734 203.470 C 137.816 205.035,142.277 209.144,143.959 210.123 C 145.925 211.267,145.405 210.674,142.975 209.001 C 141.751 208.158,139.649 206.283,138.304 204.834 C 136.958 203.385,136.252 202.771,136.734 203.470 M192.200 204.400 C 192.048 205.091,192.007 205.741,192.109 205.842 C 192.211 205.944,192.409 205.453,192.550 204.750 C 192.883 203.083,192.560 202.760,192.200 204.400 M198.900 207.076 C 199.285 207.176,199.915 207.176,200.300 207.076 C 200.685 206.975,200.370 206.893,199.600 206.893 C 198.830 206.893,198.515 206.975,198.900 207.076 M230.278 208.605 C 229.912 209.372,229.695 210.000,229.796 210.000 C 230.070 210.000,231.284 207.551,231.101 207.368 C 231.014 207.281,230.644 207.838,230.278 208.605 M205.600 208.020 C 208.014 208.450,209.906 208.413,207.800 207.977 C 206.920 207.795,205.660 207.658,205.000 207.673 C 204.100 207.693,204.250 207.780,205.600 208.020 M212.000 208.820 C 212.990 208.997,214.340 209.132,215.000 209.120 C 215.885 209.105,215.728 209.016,214.400 208.780 C 213.410 208.603,212.060 208.468,211.400 208.480 C 210.515 208.495,210.672 208.584,212.000 208.820 M217.507 209.490 C 218.226 209.579,219.306 209.577,219.907 209.486 C 220.508 209.395,219.920 209.322,218.600 209.324 C 217.280 209.326,216.788 209.401,217.507 209.490 M221.900 209.882 C 222.395 209.978,223.205 209.978,223.700 209.882 C 224.195 209.787,223.790 209.709,222.800 209.709 C 221.810 209.709,221.405 209.787,221.900 209.882 M145.600 210.979 C 145.600 211.089,146.140 211.459,146.800 211.800 C 147.460 212.141,148.000 212.331,148.000 212.221 C 148.000 212.111,147.460 211.741,146.800 211.400 C 146.140 211.059,145.600 210.869,145.600 210.979 M250.489 215.689 C 249.562 217.695,248.866 219.399,248.941 219.474 C 249.017 219.550,249.840 217.973,250.770 215.970 C 251.701 213.968,252.397 212.264,252.318 212.185 C 252.239 212.106,251.416 213.682,250.489 215.689 M148.400 212.598 C 148.400 212.867,152.449 214.884,152.629 214.705 C 152.711 214.623,151.793 214.073,150.589 213.482 C 149.385 212.892,148.400 212.494,148.400 212.598 M156.000 216.115 C 156.000 216.391,161.259 218.474,161.457 218.276 C 161.544 218.189,160.668 217.748,159.508 217.297 C 158.349 216.847,157.085 216.351,156.700 216.196 C 156.315 216.041,156.000 216.005,156.000 216.115 M163.588 219.184 C 164.090 219.502,164.100 219.769,163.652 221.008 C 163.363 221.807,163.204 222.537,163.299 222.632 C 163.393 222.727,163.702 222.102,163.985 221.245 C 164.510 219.655,164.330 218.795,163.476 218.806 C 163.185 218.810,163.229 218.957,163.588 219.184 M247.800 221.200 C 247.459 221.860,247.269 222.400,247.379 222.400 C 247.489 222.400,247.859 221.860,248.200 221.200 C 248.541 220.540,248.731 220.000,248.621 220.000 C 248.511 220.000,248.141 220.540,247.800 221.200 M246.011 224.183 C 245.541 224.943,244.221 226.410,243.078 227.443 C 241.935 228.476,241.368 229.128,241.817 228.891 C 242.811 228.367,246.113 224.883,246.760 223.675 C 247.503 222.286,246.952 222.660,246.011 224.183 M162.444 224.444 C 162.198 225.151,162.066 225.800,162.152 225.885 C 162.238 225.971,162.509 225.462,162.756 224.756 C 163.002 224.049,163.134 223.400,163.048 223.315 C 162.962 223.229,162.691 223.738,162.444 224.444 M189.000 226.000 C 190.692 226.431,192.144 226.431,190.800 226.000 C 190.250 225.824,189.350 225.683,188.800 225.687 C 187.902 225.694,187.922 225.726,189.000 226.000 M183.846 227.846 C 183.492 228.885,183.272 229.805,183.356 229.890 C 183.441 229.974,183.800 229.193,184.154 228.154 C 184.508 227.115,184.728 226.195,184.644 226.110 C 184.559 226.026,184.200 226.807,183.846 227.846 M194.600 227.028 C 195.700 227.334,197.050 227.573,197.600 227.559 C 198.150 227.545,197.520 227.290,196.200 226.992 C 193.080 226.289,192.029 226.313,194.600 227.028 M160.844 228.844 C 160.598 229.551,160.466 230.200,160.552 230.285 C 160.638 230.371,160.909 229.862,161.156 229.156 C 161.402 228.449,161.534 227.800,161.448 227.715 C 161.362 227.629,161.091 228.138,160.844 228.844 M202.600 228.400 C 203.260 228.568,204.250 228.705,204.800 228.705 C 205.692 228.705,205.670 228.672,204.600 228.400 C 203.940 228.232,202.950 228.095,202.400 228.095 C 201.508 228.095,201.530 228.128,202.600 228.400 M206.705 229.083 C 207.202 229.179,207.922 229.175,208.305 229.075 C 208.687 228.975,208.280 228.896,207.400 228.901 C 206.520 228.905,206.207 228.987,206.705 229.083 M209.700 229.476 C 210.085 229.576,210.715 229.576,211.100 229.476 C 211.485 229.375,211.170 229.293,210.400 229.293 C 209.630 229.293,209.315 229.375,209.700 229.476 M239.400 229.814 C 238.395 230.298,238.363 230.353,239.200 230.151 C 239.750 230.019,240.371 229.750,240.580 229.555 C 241.098 229.071,240.814 229.133,239.400 229.814 M213.600 230.020 C 214.590 230.197,216.030 230.330,216.800 230.317 C 217.945 230.297,217.835 230.236,216.200 229.982 C 213.453 229.554,211.169 229.588,213.600 230.020 M182.600 231.200 C 182.450 231.673,182.417 232.150,182.527 232.260 C 182.637 232.370,182.850 232.073,183.000 231.600 C 183.150 231.127,183.183 230.650,183.073 230.540 C 182.963 230.430,182.750 230.727,182.600 231.200 M220.300 230.682 C 220.795 230.778,221.605 230.778,222.100 230.682 C 222.595 230.587,222.190 230.509,221.200 230.509 C 220.210 230.509,219.805 230.587,220.300 230.682 M229.800 230.800 L 223.000 231.029 229.600 231.075 C 233.230 231.100,236.650 230.976,237.200 230.800 C 237.933 230.565,237.986 230.492,237.400 230.525 C 236.960 230.550,233.540 230.674,229.800 230.800 M159.691 232.100 C 159.010 233.984,159.104 234.494,159.826 232.830 C 160.153 232.077,160.366 231.299,160.301 231.102 C 160.235 230.905,159.960 231.354,159.691 232.100 M181.644 234.044 C 181.398 234.751,181.266 235.400,181.352 235.485 C 181.438 235.571,181.709 235.062,181.956 234.356 C 182.202 233.649,182.334 233.000,182.248 232.915 C 182.162 232.829,181.891 233.338,181.644 234.044 M158.444 235.644 C 158.198 236.351,158.066 237.000,158.152 237.085 C 158.238 237.171,158.509 236.662,158.756 235.956 C 159.002 235.249,159.134 234.600,159.048 234.515 C 158.962 234.429,158.691 234.938,158.444 235.644 M179.448 240.248 C 178.876 241.949,178.476 243.409,178.560 243.493 C 178.644 243.577,179.180 242.254,179.752 240.552 C 180.324 238.851,180.724 237.391,180.640 237.307 C 180.556 237.223,180.020 238.546,179.448 240.248 M156.844 240.044 C 156.598 240.751,156.466 241.400,156.552 241.485 C 156.638 241.571,156.909 241.062,157.156 240.356 C 157.402 239.649,157.534 239.000,157.448 238.915 C 157.362 238.829,157.091 239.338,156.844 240.044 M155.060 244.860 C 154.477 246.440,154.066 247.800,154.148 247.881 C 154.230 247.963,154.775 246.738,155.360 245.160 C 155.945 243.582,156.355 242.222,156.272 242.139 C 156.189 242.055,155.643 243.280,155.060 244.860 M177.244 246.444 C 176.998 247.151,176.866 247.800,176.952 247.885 C 177.038 247.971,177.309 247.462,177.556 246.756 C 177.802 246.049,177.934 245.400,177.848 245.315 C 177.762 245.229,177.491 245.738,177.244 246.444 M151.653 253.853 C 150.729 256.193,150.040 258.173,150.120 258.254 C 150.201 258.334,151.023 256.486,151.947 254.147 C 152.871 251.807,153.560 249.827,153.480 249.746 C 153.399 249.666,152.577 251.514,151.653 253.853 M175.040 252.663 C 174.683 253.711,174.548 254.396,174.741 254.185 C 175.185 253.696,176.055 251.122,175.847 250.913 C 175.761 250.827,175.398 251.614,175.040 252.663 M172.450 259.450 C 172.186 260.029,172.062 260.595,172.174 260.707 C 172.286 260.819,172.568 260.411,172.800 259.800 C 173.032 259.189,173.157 258.623,173.076 258.543 C 172.996 258.462,172.714 258.871,172.450 259.450 M148.632 261.432 C 148.045 262.898,147.632 264.165,147.715 264.248 C 147.798 264.331,148.343 263.196,148.926 261.726 C 149.510 260.256,149.922 258.989,149.843 258.909 C 149.764 258.830,149.219 259.965,148.632 261.432 M169.867 266.067 C 169.505 266.988,169.274 267.807,169.354 267.888 C 169.434 267.968,169.800 267.283,170.167 266.367 C 170.533 265.450,170.764 264.631,170.679 264.546 C 170.594 264.461,170.229 265.145,169.867 266.067 M146.453 266.853 C 145.980 267.993,145.658 268.992,145.739 269.072 C 145.820 269.153,146.273 268.286,146.747 267.147 C 147.220 266.007,147.542 265.008,147.461 264.928 C 147.380 264.847,146.927 265.714,146.453 266.853 M167.874 271.074 C 167.290 272.544,166.878 273.811,166.957 273.891 C 167.036 273.970,167.581 272.835,168.168 271.368 C 168.755 269.902,169.168 268.635,169.085 268.552 C 169.002 268.469,168.457 269.604,167.874 271.074 M142.055 277.455 C 141.365 279.148,140.866 280.599,140.946 280.679 C 141.026 280.759,141.656 279.439,142.345 277.745 C 143.035 276.052,143.534 274.601,143.454 274.521 C 143.374 274.441,142.744 275.761,142.055 277.455 M165.273 277.473 C 164.571 279.154,164.061 280.594,164.140 280.673 C 164.218 280.751,164.859 279.442,165.564 277.764 C 166.268 276.085,166.778 274.645,166.697 274.563 C 166.615 274.482,165.975 275.791,165.273 277.473 M140.065 282.217 C 139.395 283.688,139.523 284.002,140.247 282.665 C 140.586 282.040,140.788 281.454,140.696 281.363 C 140.605 281.271,140.321 281.656,140.065 282.217 M162.053 285.253 C 161.580 286.393,161.258 287.392,161.339 287.472 C 161.420 287.553,161.873 286.686,162.347 285.547 C 162.820 284.407,163.142 283.408,163.061 283.328 C 162.980 283.247,162.527 284.114,162.053 285.253 M138.280 286.880 C 137.676 288.439,137.246 289.780,137.326 289.860 C 137.406 289.940,137.970 288.734,138.580 287.180 C 139.190 285.626,139.619 284.285,139.534 284.200 C 139.449 284.115,138.884 285.321,138.280 286.880 M160.465 289.017 C 159.795 290.488,159.923 290.802,160.647 289.465 C 160.986 288.840,161.188 288.254,161.096 288.163 C 161.005 288.071,160.721 288.456,160.465 289.017 M159.244 292.044 C 158.998 292.751,158.866 293.400,158.952 293.485 C 159.038 293.571,159.309 293.062,159.556 292.356 C 159.802 291.649,159.934 291.000,159.848 290.915 C 159.762 290.829,159.491 291.338,159.244 292.044 M136.044 292.844 C 135.798 293.551,135.666 294.200,135.752 294.285 C 135.838 294.371,136.109 293.862,136.356 293.156 C 136.602 292.449,136.734 291.800,136.648 291.715 C 136.562 291.629,136.291 292.138,136.044 292.844 M158.044 295.244 C 157.798 295.951,157.666 296.600,157.752 296.685 C 157.838 296.771,158.109 296.262,158.356 295.556 C 158.602 294.849,158.734 294.200,158.648 294.115 C 158.562 294.029,158.291 294.538,158.044 295.244 M134.891 296.100 C 134.210 297.984,134.304 298.494,135.026 296.830 C 135.353 296.077,135.566 295.299,135.501 295.102 C 135.435 294.905,135.160 295.354,134.891 296.100 M156.646 299.046 C 156.292 300.085,156.072 301.005,156.156 301.090 C 156.241 301.174,156.600 300.393,156.954 299.354 C 157.308 298.315,157.528 297.395,157.444 297.310 C 157.359 297.226,157.000 298.007,156.646 299.046 M132.436 303.636 C 132.166 304.539,132.018 305.352,132.108 305.442 C 132.198 305.532,132.493 304.866,132.764 303.964 C 133.034 303.061,133.182 302.248,133.092 302.158 C 133.002 302.068,132.707 302.734,132.436 303.636 M154.629 304.629 C 154.481 305.215,154.438 305.772,154.532 305.866 C 154.627 305.960,154.824 305.558,154.971 304.971 C 155.119 304.385,155.162 303.828,155.068 303.734 C 154.973 303.640,154.776 304.042,154.629 304.629 M130.836 308.836 C 130.566 309.739,130.418 310.552,130.508 310.642 C 130.598 310.732,130.893 310.066,131.164 309.164 C 131.434 308.261,131.582 307.448,131.492 307.358 C 131.402 307.268,131.107 307.934,130.836 308.836 M152.640 311.040 C 152.253 312.267,152.009 313.342,152.097 313.430 C 152.185 313.518,152.573 312.587,152.960 311.360 C 153.347 310.133,153.591 309.058,153.503 308.970 C 153.415 308.882,153.027 309.813,152.640 311.040 M129.636 312.836 C 129.366 313.739,129.218 314.552,129.308 314.642 C 129.398 314.732,129.693 314.066,129.964 313.164 C 130.234 312.261,130.382 311.448,130.292 311.358 C 130.202 311.268,129.907 311.934,129.636 312.836 M151.429 315.029 C 151.281 315.615,151.238 316.172,151.332 316.266 C 151.427 316.360,151.624 315.958,151.771 315.371 C 151.919 314.785,151.962 314.228,151.868 314.134 C 151.773 314.040,151.576 314.442,151.429 315.029 M128.204 317.500 C 128.049 317.885,127.861 319.730,127.787 321.600 L 127.653 325.000 127.966 321.800 C 128.138 320.040,128.409 318.195,128.567 317.700 C 128.904 316.642,128.614 316.482,128.204 317.500 M150.036 319.636 C 149.766 320.539,149.618 321.352,149.708 321.442 C 149.798 321.532,150.093 320.866,150.364 319.964 C 150.634 319.061,150.782 318.248,150.692 318.158 C 150.602 318.068,150.307 318.734,150.036 319.636 M148.695 324.067 C 145.433 334.413,133.236 336.226,128.941 327.003 C 128.428 325.901,128.006 325.232,128.004 325.516 C 127.974 329.523,134.788 334.123,139.612 333.352 C 143.991 332.651,150.519 325.358,149.501 322.303 C 149.430 322.091,149.067 322.884,148.695 324.067 " stroke="none" fill="#F5F1E8" fill-rule="evenodd"></path><path id="path4" d="M209.000 108.408 C 210.100 108.578,211.360 108.828,211.800 108.964 C 212.240 109.101,212.060 108.947,211.400 108.624 C 210.740 108.301,209.480 108.050,208.600 108.068 C 207.034 108.099,207.042 108.106,209.000 108.408 M201.596 112.500 C 201.160 113.215,200.802 113.965,200.801 114.167 C 200.800 114.623,200.856 114.548,201.914 112.700 C 202.966 110.863,202.697 110.694,201.596 112.500 M215.768 112.945 C 216.226 113.885,216.656 114.519,216.724 114.354 C 216.873 113.995,215.746 111.737,215.271 111.444 C 215.087 111.330,215.311 112.006,215.768 112.945 M161.305 114.687 C 161.914 114.779,162.814 114.777,163.305 114.682 C 163.797 114.587,163.300 114.511,162.200 114.514 C 161.100 114.517,160.697 114.595,161.305 114.687 M157.744 115.569 C 157.053 115.990,156.347 116.575,156.175 116.868 C 155.990 117.182,156.177 117.134,156.631 116.750 C 157.054 116.393,157.940 115.815,158.600 115.466 C 159.260 115.117,159.620 114.825,159.400 114.818 C 159.180 114.810,158.435 115.148,157.744 115.569 M164.800 115.086 C 165.130 115.208,165.760 115.474,166.200 115.676 C 166.987 116.038,166.988 116.034,166.224 115.422 C 165.796 115.080,165.166 114.814,164.824 114.832 C 164.285 114.859,164.282 114.893,164.800 115.086 M216.934 118.000 C 216.934 119.650,217.005 120.325,217.091 119.500 C 217.178 118.675,217.178 117.325,217.091 116.500 C 217.005 115.675,216.934 116.350,216.934 118.000 M167.200 116.125 C 167.200 116.194,167.785 116.779,168.500 117.425 L 169.800 118.600 168.625 117.300 C 167.530 116.088,167.200 115.816,167.200 116.125 M153.879 119.300 C 152.794 120.768,152.062 122.032,152.663 121.400 C 153.405 120.620,155.238 118.000,155.041 118.000 C 154.931 118.000,154.408 118.585,153.879 119.300 M169.837 119.400 C 170.465 121.117,170.460 123.123,169.827 124.348 C 169.471 125.037,169.269 125.600,169.379 125.600 C 170.562 125.600,171.134 121.191,170.158 119.600 C 169.770 118.967,169.652 118.894,169.837 119.400 M216.501 122.600 C 216.505 123.480,216.587 123.793,216.683 123.295 C 216.779 122.798,216.775 122.078,216.675 121.695 C 216.575 121.313,216.496 121.720,216.501 122.600 M150.800 124.400 C 150.351 125.280,150.074 126.000,150.184 126.000 C 150.294 126.000,150.751 125.280,151.200 124.400 C 151.649 123.520,151.926 122.800,151.816 122.800 C 151.706 122.800,151.249 123.520,150.800 124.400 M149.072 127.819 C 148.132 129.789,148.264 130.124,149.247 128.262 C 149.693 127.416,149.987 126.654,149.901 126.567 C 149.814 126.481,149.441 127.044,149.072 127.819 M167.123 127.500 C 166.418 128.321,165.890 129.200,166.101 129.200 C 166.183 129.200,166.649 128.660,167.137 128.000 C 168.101 126.696,168.092 126.372,167.123 127.500 M261.700 127.876 C 262.085 127.976,262.715 127.976,263.100 127.876 C 263.485 127.775,263.170 127.693,262.400 127.693 C 261.630 127.693,261.315 127.775,261.700 127.876 M258.800 128.418 C 258.362 128.715,258.524 128.752,259.400 128.556 C 260.871 128.227,261.190 127.998,260.167 128.006 C 259.745 128.009,259.130 128.195,258.800 128.418 M264.033 128.144 C 264.125 128.223,264.740 128.408,265.400 128.556 C 266.276 128.752,266.438 128.715,266.000 128.418 C 265.460 128.053,263.632 127.798,264.033 128.144 M267.000 129.054 C 267.220 129.248,268.029 129.945,268.799 130.603 L 270.197 131.800 269.199 130.663 C 268.649 130.038,267.840 129.341,267.400 129.114 C 266.960 128.888,266.780 128.861,267.000 129.054 M255.516 130.700 C 254.347 131.943,252.801 134.397,252.806 135.000 C 252.808 135.220,253.270 134.590,253.833 133.600 C 254.396 132.610,255.328 131.305,255.903 130.700 C 256.479 130.095,256.860 129.600,256.750 129.600 C 256.640 129.600,256.084 130.095,255.516 130.700 M164.838 131.700 C 164.649 132.195,164.204 133.297,163.848 134.149 C 163.144 135.831,163.009 136.567,163.585 135.585 C 164.191 134.549,165.601 130.800,165.384 130.800 C 165.272 130.800,165.026 131.205,164.838 131.700 M146.672 133.019 C 145.732 134.989,145.864 135.324,146.847 133.462 C 147.293 132.616,147.587 131.854,147.501 131.767 C 147.414 131.681,147.041 132.244,146.672 133.019 M214.229 134.629 C 214.081 135.215,214.038 135.772,214.132 135.866 C 214.227 135.960,214.424 135.558,214.571 134.971 C 214.719 134.385,214.762 133.828,214.668 133.734 C 214.573 133.640,214.376 134.042,214.229 134.629 M271.488 137.400 C 271.714 141.558,271.936 142.146,271.940 138.600 C 271.942 137.060,271.802 135.440,271.628 135.000 C 271.454 134.557,271.391 135.627,271.488 137.400 M252.200 137.200 C 252.048 137.891,252.007 138.541,252.109 138.642 C 252.211 138.744,252.409 138.253,252.550 137.550 C 252.883 135.883,252.560 135.560,252.200 137.200 M211.029 147.429 C 210.881 148.015,210.838 148.572,210.932 148.666 C 211.027 148.760,211.224 148.358,211.371 147.771 C 211.519 147.185,211.562 146.628,211.468 146.534 C 211.373 146.440,211.176 146.842,211.029 147.429 M269.022 154.622 C 268.872 155.425,268.828 156.162,268.926 156.260 C 269.024 156.357,269.227 155.781,269.378 154.978 C 269.528 154.175,269.572 153.438,269.474 153.340 C 269.376 153.243,269.173 153.819,269.022 154.622 M248.200 155.600 C 248.048 156.291,248.007 156.941,248.109 157.042 C 248.211 157.144,248.409 156.653,248.550 155.950 C 248.883 154.283,248.560 153.960,248.200 155.600 M136.046 160.867 C 136.021 161.234,135.896 161.864,135.770 162.267 C 135.552 162.962,135.563 162.963,135.997 162.287 C 136.248 161.896,136.373 161.266,136.273 160.887 C 136.111 160.268,136.088 160.266,136.046 160.867 M246.650 162.050 C 246.317 163.717,246.640 164.040,247.000 162.400 C 247.152 161.709,247.193 161.059,247.091 160.958 C 246.989 160.856,246.791 161.347,246.650 162.050 M153.049 163.815 C 152.912 164.173,152.815 164.766,152.834 165.133 C 152.853 165.500,153.027 165.269,153.221 164.620 C 153.598 163.358,153.465 162.733,153.049 163.815 M266.629 165.029 C 266.481 165.615,266.438 166.172,266.532 166.266 C 266.627 166.360,266.824 165.958,266.971 165.371 C 267.119 164.785,267.162 164.228,267.068 164.134 C 266.973 164.040,266.776 164.442,266.629 165.029 M245.800 165.600 C 245.648 166.291,245.607 166.941,245.709 167.042 C 245.811 167.144,246.009 166.653,246.150 165.950 C 246.483 164.283,246.160 163.960,245.800 165.600 M134.250 168.050 C 133.917 169.717,134.240 170.040,134.600 168.400 C 134.752 167.709,134.793 167.059,134.691 166.958 C 134.589 166.856,134.391 167.347,134.250 168.050 M265.050 171.650 C 264.717 173.317,265.040 173.640,265.400 172.000 C 265.552 171.309,265.593 170.659,265.491 170.558 C 265.389 170.456,265.191 170.947,265.050 171.650 M181.858 173.304 C 180.928 175.740,181.080 176.204,182.036 173.847 C 182.472 172.773,182.758 171.824,182.672 171.738 C 182.586 171.652,182.220 172.357,181.858 173.304 M264.229 175.029 C 264.081 175.615,264.038 176.172,264.132 176.266 C 264.227 176.360,264.424 175.958,264.571 175.371 C 264.719 174.785,264.762 174.228,264.668 174.134 C 264.573 174.040,264.376 174.442,264.229 175.029 M150.501 175.800 C 150.505 176.680,150.587 176.993,150.683 176.495 C 150.779 175.998,150.775 175.278,150.675 174.895 C 150.575 174.513,150.496 174.920,150.501 175.800 M132.914 177.400 C 132.917 178.500,132.995 178.903,133.087 178.295 C 133.179 177.686,133.177 176.786,133.082 176.295 C 132.987 175.803,132.911 176.300,132.914 177.400 M201.046 178.646 C 200.692 179.685,200.472 180.605,200.556 180.690 C 200.641 180.774,201.000 179.993,201.354 178.954 C 201.708 177.915,201.928 176.995,201.844 176.910 C 201.759 176.826,201.400 177.607,201.046 178.646 M132.514 181.800 C 132.517 182.900,132.595 183.303,132.687 182.695 C 132.779 182.086,132.777 181.186,132.682 180.695 C 132.587 180.203,132.511 180.700,132.514 181.800 M262.629 181.029 C 262.481 181.615,262.438 182.172,262.532 182.266 C 262.627 182.360,262.824 181.958,262.971 181.371 C 263.119 180.785,263.162 180.228,263.068 180.134 C 262.973 180.040,262.776 180.442,262.629 181.029 M149.728 183.600 C 149.728 185.030,149.801 185.615,149.889 184.900 C 149.978 184.185,149.978 183.015,149.889 182.300 C 149.801 181.585,149.728 182.170,149.728 183.600 M261.829 183.829 C 261.681 184.415,261.638 184.972,261.732 185.066 C 261.827 185.160,262.024 184.758,262.171 184.171 C 262.319 183.585,262.362 183.028,262.268 182.934 C 262.173 182.840,261.976 183.242,261.829 183.829 M198.844 184.844 C 198.598 185.551,198.466 186.200,198.552 186.285 C 198.638 186.371,198.909 185.862,199.156 185.156 C 199.402 184.449,199.534 183.800,199.448 183.715 C 199.362 183.629,199.091 184.138,198.844 184.844 M132.137 188.200 C 132.139 189.960,132.209 190.630,132.293 189.689 C 132.378 188.749,132.377 187.309,132.291 186.489 C 132.205 185.670,132.136 186.440,132.137 188.200 M155.600 195.396 C 155.600 195.670,158.049 196.884,158.232 196.701 C 158.319 196.614,157.762 196.244,156.995 195.878 C 156.228 195.512,155.600 195.295,155.600 195.396 M172.444 198.044 C 172.198 198.751,172.066 199.400,172.152 199.485 C 172.238 199.571,172.509 199.062,172.756 198.356 C 173.002 197.649,173.134 197.000,173.048 196.915 C 172.962 196.829,172.691 197.338,172.444 198.044 M234.865 199.017 C 234.195 200.488,234.323 200.802,235.047 199.465 C 235.386 198.840,235.588 198.254,235.496 198.163 C 235.405 198.071,235.121 198.456,234.865 199.017 M232.465 204.617 C 231.795 206.088,231.923 206.402,232.647 205.065 C 232.986 204.440,233.188 203.854,233.096 203.763 C 233.005 203.671,232.721 204.056,232.465 204.617 M139.200 205.800 C 139.946 206.570,140.647 207.200,140.757 207.200 C 140.867 207.200,140.346 206.570,139.600 205.800 C 138.854 205.030,138.153 204.400,138.043 204.400 C 137.933 204.400,138.454 205.030,139.200 205.800 M141.344 207.509 C 141.660 208.021,144.000 209.753,144.000 209.475 C 144.000 209.376,143.339 208.791,142.532 208.175 C 141.724 207.559,141.189 207.259,141.344 207.509 M230.525 208.832 C 230.050 209.700,229.829 210.306,230.034 210.179 C 230.477 209.905,231.718 207.584,231.524 207.391 C 231.450 207.316,231.000 207.965,230.525 208.832 M201.300 207.876 C 201.685 207.976,202.315 207.976,202.700 207.876 C 203.085 207.775,202.770 207.693,202.000 207.693 C 201.230 207.693,200.915 207.775,201.300 207.876 M207.300 208.676 C 207.685 208.776,208.315 208.776,208.700 208.676 C 209.085 208.575,208.770 208.493,208.000 208.493 C 207.230 208.493,206.915 208.575,207.300 208.676 M210.500 209.076 C 210.885 209.176,211.515 209.176,211.900 209.076 C 212.285 208.975,211.970 208.893,211.200 208.893 C 210.430 208.893,210.115 208.975,210.500 209.076 M213.505 209.483 C 214.002 209.579,214.722 209.575,215.105 209.475 C 215.487 209.375,215.080 209.296,214.200 209.301 C 213.320 209.305,213.007 209.387,213.505 209.483 M217.700 209.876 C 218.085 209.976,218.715 209.976,219.100 209.876 C 219.485 209.775,219.170 209.693,218.400 209.693 C 217.630 209.693,217.315 209.775,217.700 209.876 M221.500 210.289 C 222.215 210.378,223.385 210.378,224.100 210.289 C 224.815 210.201,224.230 210.128,222.800 210.128 C 221.370 210.128,220.785 210.201,221.500 210.289 M153.200 214.600 C 153.750 214.914,154.380 215.172,154.600 215.172 C 154.820 215.172,154.550 214.914,154.000 214.600 C 153.450 214.286,152.820 214.028,152.600 214.028 C 152.380 214.028,152.650 214.286,153.200 214.600 M248.684 218.614 C 247.871 220.256,247.293 221.600,247.398 221.600 C 247.665 221.600,250.485 215.951,250.306 215.773 C 250.227 215.693,249.497 216.972,248.684 218.614 M163.150 218.617 C 164.383 219.153,164.478 219.315,164.250 220.502 C 164.073 221.425,164.115 221.627,164.394 221.200 C 165.369 219.714,164.200 217.953,162.281 218.016 C 162.017 218.024,162.407 218.295,163.150 218.617 M163.515 222.610 C 163.392 223.045,163.169 223.760,163.020 224.200 C 162.871 224.640,163.042 224.494,163.400 223.876 C 163.758 223.258,163.981 222.542,163.895 222.286 C 163.810 222.030,163.639 222.176,163.515 222.610 M243.593 226.513 C 243.039 227.001,242.049 227.815,241.393 228.322 C 240.737 228.829,240.560 229.070,241.000 228.857 C 241.833 228.454,245.150 225.636,244.800 225.629 C 244.690 225.627,244.147 226.025,243.593 226.513 M208.200 228.823 C 209.080 229.005,210.250 229.144,210.800 229.131 C 211.441 229.116,211.226 228.989,210.200 228.777 C 209.320 228.595,208.150 228.456,207.600 228.469 C 206.959 228.484,207.174 228.611,208.200 228.823 M213.105 229.483 C 213.602 229.579,214.322 229.575,214.705 229.475 C 215.087 229.375,214.680 229.296,213.800 229.301 C 212.920 229.305,212.607 229.387,213.105 229.483 M216.305 229.883 C 216.802 229.979,217.522 229.975,217.905 229.875 C 218.287 229.775,217.880 229.696,217.000 229.701 C 216.120 229.705,215.807 229.787,216.305 229.883 M160.444 231.244 C 160.198 231.951,160.066 232.600,160.152 232.685 C 160.238 232.771,160.509 232.262,160.756 231.556 C 161.002 230.849,161.134 230.200,161.048 230.115 C 160.962 230.029,160.691 230.538,160.444 231.244 M220.291 230.289 C 221.001 230.377,222.261 230.379,223.091 230.292 C 223.921 230.205,223.340 230.133,221.800 230.131 C 220.260 230.129,219.581 230.200,220.291 230.289 M182.044 231.644 C 181.798 232.351,181.666 233.000,181.752 233.085 C 181.838 233.171,182.109 232.662,182.356 231.956 C 182.602 231.249,182.734 230.600,182.648 230.515 C 182.562 230.429,182.291 230.938,182.044 231.644 M228.517 230.697 C 230.011 230.774,232.351 230.774,233.717 230.696 C 235.082 230.618,233.860 230.555,231.000 230.555 C 228.140 230.556,227.022 230.620,228.517 230.697 M159.291 234.500 C 158.610 236.384,158.704 236.894,159.426 235.230 C 159.753 234.477,159.966 233.699,159.901 233.502 C 159.835 233.305,159.560 233.754,159.291 234.500 M158.044 238.044 C 157.798 238.751,157.666 239.400,157.752 239.485 C 157.838 239.571,158.109 239.062,158.356 238.356 C 158.602 237.649,158.734 237.000,158.648 236.915 C 158.562 236.829,158.291 237.338,158.044 238.044 M153.252 250.852 C 152.551 252.644,152.043 254.177,152.125 254.258 C 152.206 254.339,152.846 252.940,153.548 251.148 C 154.249 249.356,154.757 247.823,154.675 247.742 C 154.594 247.661,153.954 249.060,153.252 250.852 M174.044 254.044 C 173.798 254.751,173.666 255.400,173.752 255.485 C 173.838 255.571,174.109 255.062,174.356 254.356 C 174.602 253.649,174.734 253.000,174.648 252.915 C 174.562 252.829,174.291 253.338,174.044 254.044 M169.867 264.867 C 169.505 265.788,169.274 266.607,169.354 266.688 C 169.434 266.768,169.800 266.083,170.167 265.167 C 170.533 264.250,170.764 263.431,170.679 263.346 C 170.594 263.261,170.229 263.945,169.867 264.867 M146.465 267.817 C 145.795 269.288,145.923 269.602,146.647 268.265 C 146.986 267.640,147.188 267.054,147.096 266.963 C 147.005 266.871,146.721 267.256,146.465 267.817 M168.444 268.444 C 168.198 269.151,168.066 269.800,168.152 269.885 C 168.238 269.971,168.509 269.462,168.756 268.756 C 169.002 268.049,169.134 267.400,169.048 267.315 C 168.962 267.229,168.691 267.738,168.444 268.444 M167.265 271.417 C 166.595 272.888,166.723 273.202,167.447 271.865 C 167.786 271.240,167.988 270.654,167.896 270.563 C 167.805 270.471,167.521 270.856,167.265 271.417 M165.867 274.867 C 165.505 275.788,165.274 276.607,165.354 276.688 C 165.434 276.768,165.800 276.083,166.167 275.167 C 166.533 274.250,166.764 273.431,166.679 273.346 C 166.594 273.261,166.229 273.945,165.867 274.867 M142.465 277.417 C 141.795 278.888,141.923 279.202,142.647 277.865 C 142.986 277.240,143.188 276.654,143.096 276.563 C 143.005 276.471,142.721 276.856,142.465 277.417 M141.067 280.867 C 140.705 281.788,140.474 282.607,140.554 282.688 C 140.634 282.768,141.000 282.083,141.367 281.167 C 141.733 280.250,141.964 279.431,141.879 279.346 C 141.794 279.261,141.429 279.945,141.067 280.867 M139.644 284.444 C 139.398 285.151,139.266 285.800,139.352 285.885 C 139.438 285.971,139.709 285.462,139.956 284.756 C 140.202 284.049,140.334 283.400,140.248 283.315 C 140.162 283.229,139.891 283.738,139.644 284.444 M161.665 285.017 C 160.995 286.488,161.123 286.802,161.847 285.465 C 162.186 284.840,162.388 284.254,162.296 284.163 C 162.205 284.071,161.921 284.456,161.665 285.017 M137.244 290.844 C 136.998 291.551,136.866 292.200,136.952 292.285 C 137.038 292.371,137.309 291.862,137.556 291.156 C 137.802 290.449,137.934 289.800,137.848 289.715 C 137.762 289.629,137.491 290.138,137.244 290.844 M155.644 300.444 C 155.398 301.151,155.266 301.800,155.352 301.885 C 155.438 301.971,155.709 301.462,155.956 300.756 C 156.202 300.049,156.334 299.400,156.248 299.315 C 156.162 299.229,155.891 299.738,155.644 300.444 M154.229 304.629 C 154.081 305.215,154.038 305.772,154.132 305.866 C 154.227 305.960,154.424 305.558,154.571 304.971 C 154.719 304.385,154.762 303.828,154.668 303.734 C 154.573 303.640,154.376 304.042,154.229 304.629 M132.036 306.436 C 131.766 307.339,131.618 308.152,131.708 308.242 C 131.798 308.332,132.093 307.666,132.364 306.764 C 132.634 305.861,132.782 305.048,132.692 304.958 C 132.602 304.868,132.307 305.534,132.036 306.436 M130.629 311.029 C 130.481 311.615,130.438 312.172,130.532 312.266 C 130.627 312.360,130.824 311.958,130.971 311.371 C 131.119 310.785,131.162 310.228,131.068 310.134 C 130.973 310.040,130.776 310.442,130.629 311.029 M128.124 322.200 C 128.126 323.520,128.201 324.012,128.290 323.293 C 128.379 322.574,128.377 321.494,128.286 320.893 C 128.195 320.292,128.122 320.880,128.124 322.200 M147.667 325.580 C 147.433 326.251,147.327 326.800,147.431 326.800 C 147.701 326.800,148.456 324.722,148.257 324.524 C 148.167 324.433,147.901 324.908,147.667 325.580 M129.200 327.416 C 129.200 329.640,134.576 332.829,138.179 332.741 L 140.600 332.683 137.771 332.421 C 134.394 332.108,131.717 330.719,130.205 328.493 C 129.652 327.680,129.200 327.195,129.200 327.416 M145.224 329.318 C 143.543 331.289,143.529 331.325,144.957 330.000 C 146.223 328.826,147.518 327.154,147.114 327.218 C 147.051 327.228,146.201 328.173,145.224 329.318 " stroke="none" fill="#F5F1E8" fill-rule="evenodd"></path></g></svg>
